{"accessors" : [{"bufferView" : 0, "byteOffset" : 0, "componentType" : 5123, "count" : 594, "type" : "SCALAR", "max" : [582], "min" : [0]}, {"bufferView" : 1, "byteOffset" : 0, "componentType" : 5126, "count" : 583, "type" : "VEC3", "max" : [5.5, 10.798859596252441, -0], "min" : [-5.5, -12.798859596252441, -6.325442790985107], "name" : "POSITION"}, {"bufferView" : 1, "byteOffset" : 12, "componentType" : 5126, "count" : 583, "type" : "VEC3", "max" : [1.0000044107437134, 1.0000044107437134, 1.0000044107437134], "min" : [-1.0000044107437134, -1.0000044107437134, -1.0000044107437134], "name" : "NORMAL"}, {"bufferView" : 1, "byteOffset" : 24, "componentType" : 5126, "count" : 583, "type" : "VEC2", "max" : [50.38922119140625, 51.38922119140625], "min" : [-50.38922119140625, -52.173118591308594], "name" : "TEXCOORD_0"}, {"bufferView" : 0, "byteOffset" : 1188, "componentType" : 5123, "count" : 1182, "type" : "SCALAR", "max" : [1170], "min" : [0]}, {"bufferView" : 2, "byteOffset" : 0, "componentType" : 5126, "count" : 1171, "type" : "VEC3", "max" : [6, 12.798859596252441, -0], "min" : [-6, -12.798859596252441, -6.325442790985107], "name" : "POSITION"}, {"bufferView" : 2, "byteOffset" : 12, "componentType" : 5126, "count" : 1171, "type" : "VEC3", "max" : [1.0000044107437134, 1.0000044107437134, 1.0000044107437134], "min" : [-1.0000044107437134, -1.0000044107437134, -1.0000044107437134], "name" : "NORMAL"}, {"bufferView" : 2, "byteOffset" : 24, "componentType" : 5126, "count" : 1171, "type" : "VEC2", "max" : [50.38922119140625, 51.38922119140625], "min" : [-50.38922119140625, -49.38922119140625], "name" : "TEXCOORD_0"}, {"bufferView" : 0, "byteOffset" : 3552, "componentType" : 5123, "count" : 72, "type" : "SCALAR", "max" : [71], "min" : [0]}, {"bufferView" : 3, "byteOffset" : 0, "componentType" : 5126, "count" : 72, "type" : "VEC3", "max" : [2.5199999809265137, 0.968752920627594, -3.8854429721832275], "min" : [-2.5199999809265137, -2.0312469005584717, -5.325441837310791], "name" : "POSITION"}, {"bufferView" : 3, "byteOffset" : 12, "componentType" : 5126, "count" : 72, "type" : "VEC3", "max" : [0.980482280254364, 1.0000044107437134, 3.420244684093632E-05], "min" : [-0.980482280254364, 0.19662989675998688, -7.804490451235324E-06], "name" : "NORMAL"}, {"bufferView" : 3, "byteOffset" : 24, "componentType" : 5126, "count" : 72, "type" : "VEC2", "max" : [9.791725158691406, -14.297019958496094], "min" : [-9.791725158691406, -19.966310501098633], "name" : "TEXCOORD_0"}, {"bufferView" : 0, "byteOffset" : 3696, "componentType" : 5123, "count" : 12, "type" : "SCALAR", "max" : [11], "min" : [0]}, {"bufferView" : 4, "byteOffset" : 0, "componentType" : 5126, "count" : 12, "type" : "VEC3", "max" : [5.5, 0.6548904776573181, -2.8854429721832275], "min" : [-5.5, 0.6548904776573181, -3.8854429721832275], "name" : "POSITION"}, {"bufferView" : 4, "byteOffset" : 12, "componentType" : 5126, "count" : 12, "type" : "VEC3", "max" : [0, -1.0000044107437134, -0], "min" : [0, -1.0000044107437134, -0], "name" : "NORMAL"}, {"bufferView" : 4, "byteOffset" : 24, "componentType" : 5126, "count" : 12, "type" : "VEC2", "max" : [21.653539657592773, -1.5783090591430664], "min" : [-6.515316963195801, -14.297019958496094], "name" : "TEXCOORD_0"}, {"bufferView" : 0, "byteOffset" : 3720, "componentType" : 5123, "count" : 354, "type" : "SCALAR", "max" : [353], "min" : [0]}, {"bufferView" : 5, "byteOffset" : 0, "componentType" : 5126, "count" : 354, "type" : "VEC3", "max" : [2.887646109099411E-14, 3, 3], "min" : [-3, -3, -3], "name" : "POSITION"}, {"bufferView" : 5, "byteOffset" : 12, "componentType" : 5126, "count" : 354, "type" : "VEC3", "max" : [1.0000044107437134, 1.0000044107437134, 1.0000044107437134], "min" : [-0.4103673994541168, -1.0000044107437134, -1.0000044107437134], "name" : "NORMAL"}, {"bufferView" : 5, "byteOffset" : 24, "componentType" : 5126, "count" : 354, "type" : "VEC2", "max" : [11.811019897460938, 12.811019897460938], "min" : [-11.811019897460938, -10.811019897460938], "name" : "TEXCOORD_0"}, {"bufferView" : 0, "byteOffset" : 4428, "componentType" : 5123, "count" : 354, "type" : "SCALAR", "max" : [350], "min" : [0]}, {"bufferView" : 6, "byteOffset" : 0, "componentType" : 5126, "count" : 351, "type" : "VEC3", "max" : [-2, 1.6488020420074463, 1.6488020420074463], "min" : [-3, -1.6488020420074463, -1.6488020420074463], "name" : "POSITION"}, {"bufferView" : 6, "byteOffset" : 12, "componentType" : 5126, "count" : 351, "type" : "VEC3", "max" : [-0.2640933096408844, 0.9645014405250549, 0.964501678943634], "min" : [-1.0000044107437134, -0.9645014405250549, -0.964501678943634], "name" : "NORMAL"}, {"bufferView" : 6, "byteOffset" : 24, "componentType" : 5126, "count" : 351, "type" : "VEC2", "max" : [12.53046989440918, 12.438349723815918], "min" : [-12.53046989440918, -10.438349723815918], "name" : "TEXCOORD_0"}, {"bufferView" : 0, "byteOffset" : 5136, "componentType" : 5123, "count" : 144, "type" : "SCALAR", "max" : [139], "min" : [0]}, {"bufferView" : 7, "byteOffset" : 0, "componentType" : 5126, "count" : 140, "type" : "VEC3", "max" : [-3, 2.549999952316284, 2.549999952316284], "min" : [-3, -2.549999952316284, -2.549999952316284], "name" : "POSITION"}, {"bufferView" : 7, "byteOffset" : 12, "componentType" : 5126, "count" : 140, "type" : "VEC3", "max" : [-1.0000042915344238, 0, 1.5371952599707583E-07], "min" : [-1.0000044107437134, 0, -2.7902527222067874E-07], "name" : "NORMAL"}, {"bufferView" : 7, "byteOffset" : 24, "componentType" : 5126, "count" : 140, "type" : "VEC2", "max" : [10.039369583129883, 11.039369583129883], "min" : [-10.039369583129883, -9.039369583129883], "name" : "TEXCOORD_0"}, {"bufferView" : 0, "byteOffset" : 5424, "componentType" : 5123, "count" : 354, "type" : "SCALAR", "max" : [353], "min" : [0]}, {"bufferView" : 8, "byteOffset" : 0, "componentType" : 5126, "count" : 354, "type" : "VEC3", "max" : [2.887646109099411E-14, 3, 3], "min" : [-3, -3, -3], "name" : "POSITION"}, {"bufferView" : 8, "byteOffset" : 12, "componentType" : 5126, "count" : 354, "type" : "VEC3", "max" : [1.0000044107437134, 1.0000044107437134, 1.0000044107437134], "min" : [-0.4103673994541168, -1.0000044107437134, -1.0000044107437134], "name" : "NORMAL"}, {"bufferView" : 8, "byteOffset" : 24, "componentType" : 5126, "count" : 354, "type" : "VEC2", "max" : [11.811019897460938, 12.811019897460938], "min" : [-11.811019897460938, -10.811019897460938], "name" : "TEXCOORD_0"}, {"bufferView" : 0, "byteOffset" : 6132, "componentType" : 5123, "count" : 354, "type" : "SCALAR", "max" : [350], "min" : [0]}, {"bufferView" : 9, "byteOffset" : 0, "componentType" : 5126, "count" : 351, "type" : "VEC3", "max" : [-2, 1.6488020420074463, 1.6488020420074463], "min" : [-3, -1.6488020420074463, -1.6488020420074463], "name" : "POSITION"}, {"bufferView" : 9, "byteOffset" : 12, "componentType" : 5126, "count" : 351, "type" : "VEC3", "max" : [-0.2640933096408844, 0.9645014405250549, 0.964501678943634], "min" : [-1.0000044107437134, -0.9645014405250549, -0.964501678943634], "name" : "NORMAL"}, {"bufferView" : 9, "byteOffset" : 24, "componentType" : 5126, "count" : 351, "type" : "VEC2", "max" : [12.53046989440918, 12.438349723815918], "min" : [-12.53046989440918, -10.438349723815918], "name" : "TEXCOORD_0"}, {"bufferView" : 0, "byteOffset" : 6840, "componentType" : 5123, "count" : 144, "type" : "SCALAR", "max" : [139], "min" : [0]}, {"bufferView" : 10, "byteOffset" : 0, "componentType" : 5126, "count" : 140, "type" : "VEC3", "max" : [-3, 2.549999952316284, 2.549999952316284], "min" : [-3, -2.549999952316284, -2.549999952316284], "name" : "POSITION"}, {"bufferView" : 10, "byteOffset" : 12, "componentType" : 5126, "count" : 140, "type" : "VEC3", "max" : [-1.0000042915344238, 0, 1.5371952599707583E-07], "min" : [-1.0000044107437134, 0, -2.7902527222067874E-07], "name" : "NORMAL"}, {"bufferView" : 10, "byteOffset" : 24, "componentType" : 5126, "count" : 140, "type" : "VEC2", "max" : [10.039369583129883, 11.039369583129883], "min" : [-10.039369583129883, -9.039369583129883], "name" : "TEXCOORD_0"}, {"bufferView" : 0, "byteOffset" : 7128, "componentType" : 5123, "count" : 354, "type" : "SCALAR", "max" : [353], "min" : [0]}, {"bufferView" : 11, "byteOffset" : 0, "componentType" : 5126, "count" : 354, "type" : "VEC3", "max" : [2.887646109099411E-14, 3, 3], "min" : [-3, -3, -3], "name" : "POSITION"}, {"bufferView" : 11, "byteOffset" : 12, "componentType" : 5126, "count" : 354, "type" : "VEC3", "max" : [1.0000044107437134, 1.0000044107437134, 1.0000044107437134], "min" : [-0.4103673994541168, -1.0000044107437134, -1.0000044107437134], "name" : "NORMAL"}, {"bufferView" : 11, "byteOffset" : 24, "componentType" : 5126, "count" : 354, "type" : "VEC2", "max" : [11.811019897460938, 12.811019897460938], "min" : [-11.811019897460938, -10.811019897460938], "name" : "TEXCOORD_0"}, {"bufferView" : 0, "byteOffset" : 7836, "componentType" : 5123, "count" : 354, "type" : "SCALAR", "max" : [350], "min" : [0]}, {"bufferView" : 12, "byteOffset" : 0, "componentType" : 5126, "count" : 351, "type" : "VEC3", "max" : [-2, 1.6488020420074463, 1.6488020420074463], "min" : [-3, -1.6488020420074463, -1.6488020420074463], "name" : "POSITION"}, {"bufferView" : 12, "byteOffset" : 12, "componentType" : 5126, "count" : 351, "type" : "VEC3", "max" : [-0.2640933096408844, 0.9645014405250549, 0.964501678943634], "min" : [-1.0000044107437134, -0.9645014405250549, -0.964501678943634], "name" : "NORMAL"}, {"bufferView" : 12, "byteOffset" : 24, "componentType" : 5126, "count" : 351, "type" : "VEC2", "max" : [12.53046989440918, 12.438349723815918], "min" : [-12.53046989440918, -10.438349723815918], "name" : "TEXCOORD_0"}, {"bufferView" : 0, "byteOffset" : 8544, "componentType" : 5123, "count" : 144, "type" : "SCALAR", "max" : [139], "min" : [0]}, {"bufferView" : 13, "byteOffset" : 0, "componentType" : 5126, "count" : 140, "type" : "VEC3", "max" : [-3, 2.549999952316284, 2.549999952316284], "min" : [-3, -2.549999952316284, -2.549999952316284], "name" : "POSITION"}, {"bufferView" : 13, "byteOffset" : 12, "componentType" : 5126, "count" : 140, "type" : "VEC3", "max" : [-1.0000042915344238, 0, 1.5371952599707583E-07], "min" : [-1.0000044107437134, 0, -2.7902527222067874E-07], "name" : "NORMAL"}, {"bufferView" : 13, "byteOffset" : 24, "componentType" : 5126, "count" : 140, "type" : "VEC2", "max" : [10.039369583129883, 11.039369583129883], "min" : [-10.039369583129883, -9.039369583129883], "name" : "TEXCOORD_0"}, {"bufferView" : 0, "byteOffset" : 8832, "componentType" : 5123, "count" : 354, "type" : "SCALAR", "max" : [353], "min" : [0]}, {"bufferView" : 14, "byteOffset" : 0, "componentType" : 5126, "count" : 354, "type" : "VEC3", "max" : [2.887646109099411E-14, 3, 3], "min" : [-3, -3, -3], "name" : "POSITION"}, {"bufferView" : 14, "byteOffset" : 12, "componentType" : 5126, "count" : 354, "type" : "VEC3", "max" : [1.0000044107437134, 1.0000044107437134, 1.0000044107437134], "min" : [-0.4103673994541168, -1.0000044107437134, -1.0000044107437134], "name" : "NORMAL"}, {"bufferView" : 14, "byteOffset" : 24, "componentType" : 5126, "count" : 354, "type" : "VEC2", "max" : [11.811019897460938, 12.811019897460938], "min" : [-11.811019897460938, -10.811019897460938], "name" : "TEXCOORD_0"}, {"bufferView" : 0, "byteOffset" : 9540, "componentType" : 5123, "count" : 354, "type" : "SCALAR", "max" : [350], "min" : [0]}, {"bufferView" : 15, "byteOffset" : 0, "componentType" : 5126, "count" : 351, "type" : "VEC3", "max" : [-2, 1.6488020420074463, 1.6488020420074463], "min" : [-3, -1.6488020420074463, -1.6488020420074463], "name" : "POSITION"}, {"bufferView" : 15, "byteOffset" : 12, "componentType" : 5126, "count" : 351, "type" : "VEC3", "max" : [-0.2640933096408844, 0.9645014405250549, 0.964501678943634], "min" : [-1.0000044107437134, -0.9645014405250549, -0.964501678943634], "name" : "NORMAL"}, {"bufferView" : 15, "byteOffset" : 24, "componentType" : 5126, "count" : 351, "type" : "VEC2", "max" : [12.53046989440918, 12.438349723815918], "min" : [-12.53046989440918, -10.438349723815918], "name" : "TEXCOORD_0"}, {"bufferView" : 0, "byteOffset" : 10248, "componentType" : 5123, "count" : 144, "type" : "SCALAR", "max" : [139], "min" : [0]}, {"bufferView" : 16, "byteOffset" : 0, "componentType" : 5126, "count" : 140, "type" : "VEC3", "max" : [-3, 2.549999952316284, 2.549999952316284], "min" : [-3, -2.549999952316284, -2.549999952316284], "name" : "POSITION"}, {"bufferView" : 16, "byteOffset" : 12, "componentType" : 5126, "count" : 140, "type" : "VEC3", "max" : [-1.0000042915344238, 0, 1.5371952599707583E-07], "min" : [-1.0000044107437134, 0, -2.7902527222067874E-07], "name" : "NORMAL"}, {"bufferView" : 16, "byteOffset" : 24, "componentType" : 5126, "count" : 140, "type" : "VEC2", "max" : [10.039369583129883, 11.039369583129883], "min" : [-10.039369583129883, -9.039369583129883], "name" : "TEXCOORD_0"}], "asset" : {"generator" : "Aspose.3D 22.7", "version" : "2.0"}, "buffers" : [{"uri" : "data:application/octet-stream;base64,", "byteLength" : 179180}], "bufferViews" : [{"buffer" : 0, "byteOffset" : 0, "byteLength" : 10536, "target" : 34963}, {"buffer" : 0, "byteOffset" : 10540, "byteLength" : 19008, "byteStride" : 32, "target" : 34962}, {"buffer" : 0, "byteOffset" : 29552, "byteLength" : 37824, "byteStride" : 32, "target" : 34962}, {"buffer" : 0, "byteOffset" : 67380, "byteLength" : 2304, "byteStride" : 32, "target" : 34962}, {"buffer" : 0, "byteOffset" : 69688, "byteLength" : 384, "byteStride" : 32, "target" : 34962}, {"buffer" : 0, "byteOffset" : 70076, "byteLength" : 11328, "byteStride" : 32, "target" : 34962}, {"buffer" : 0, "byteOffset" : 81408, "byteLength" : 11328, "byteStride" : 32, "target" : 34962}, {"buffer" : 0, "byteOffset" : 92740, "byteLength" : 4608, "byteStride" : 32, "target" : 34962}, {"buffer" : 0, "byteOffset" : 97352, "byteLength" : 11328, "byteStride" : 32, "target" : 34962}, {"buffer" : 0, "byteOffset" : 108684, "byteLength" : 11328, "byteStride" : 32, "target" : 34962}, {"buffer" : 0, "byteOffset" : 120016, "byteLength" : 4608, "byteStride" : 32, "target" : 34962}, {"buffer" : 0, "byteOffset" : 124628, "byteLength" : 11328, "byteStride" : 32, "target" : 34962}, {"buffer" : 0, "byteOffset" : 135960, "byteLength" : 11328, "byteStride" : 32, "target" : 34962}, {"buffer" : 0, "byteOffset" : 147292, "byteLength" : 4608, "byteStride" : 32, "target" : 34962}, {"buffer" : 0, "byteOffset" : 151904, "byteLength" : 11328, "byteStride" : 32, "target" : 34962}, {"buffer" : 0, "byteOffset" : 163236, "byteLength" : 11328, "byteStride" : 32, "target" : 34962}, {"buffer" : 0, "byteOffset" : 174568, "byteLength" : 4608, "byteStride" : 32, "target" : 34962}], "materials" : [{"name" : "paintRed", "pbrMetallicRoughness" : {"baseColorFactor" : [0.025097018107771873, 0.17184492945671082, 1, 1], "metallicFactor" : 1, "roughnessFactor" : 0.5527864098548889}, "emissiveFactor" : [0, 0, 0], "alphaMode" : "OPAQUE", "doubleSided" : true}, {"name" : "plastic", "pbrMetallicRoughness" : {"baseColorFactor" : [0.3764705955982208, 0.3764705955982208, 0.3764705955982208, 1], "metallicFactor" : 1, "roughnessFactor" : 0.5527864098548889}, "emissiveFactor" : [0, 0, 0], "alphaMode" : "OPAQUE", "doubleSided" : true}, {"name" : "window", "pbrMetallicRoughness" : {"baseColorFactor" : [0.9372549057006836, 0.9372549057006836, 0.9372549057006836, 1], "metallicFactor" : 1, "roughnessFactor" : 0.5527864098548889}, "emissiveFactor" : [0, 0, 0], "alphaMode" : "OPAQUE", "doubleSided" : true}, {"name" : "_defaultMat", "pbrMetallicRoughness" : {"baseColorFactor" : [1, 1, 1, 1], "metallicFactor" : 1, "roughnessFactor" : 0.5527864098548889}, "emissiveFactor" : [0, 0, 0], "alphaMode" : "OPAQUE", "doubleSided" : true}, {"name" : "carTire", "pbrMetallicRoughness" : {"baseColorFactor" : [0.23921559751033783, 0.23921559751033783, 0.23921559751033783, 1], "metallicFactor" : 1, "roughnessFactor" : 0.5527864098548889}, "emissiveFactor" : [0, 0, 0], "alphaMode" : "OPAQUE", "doubleSided" : true}, {"name" : "plastic", "pbrMetallicRoughness" : {"baseColorFactor" : [0.3764705955982208, 0.3764705955982208, 0.3764705955982208, 1], "metallicFactor" : 1, "roughnessFactor" : 0.5527864098548889}, "emissiveFactor" : [0, 0, 0], "alphaMode" : "OPAQUE", "doubleSided" : true}, {"name" : "paintYellow", "pbrMetallicRoughness" : {"baseColorFactor" : [1, 0.740016520023346, 0.2594340145587921, 1], "metallicFactor" : 1, "roughnessFactor" : 0.5527864098548889}, "emissiveFactor" : [0, 0, 0], "alphaMode" : "OPAQUE", "doubleSided" : true}, {"name" : "carTire", "pbrMetallicRoughness" : {"baseColorFactor" : [0.23921559751033783, 0.23921559751033783, 0.23921559751033783, 1], "metallicFactor" : 1, "roughnessFactor" : 0.5527864098548889}, "emissiveFactor" : [0, 0, 0], "alphaMode" : "OPAQUE", "doubleSided" : true}, {"name" : "plastic", "pbrMetallicRoughness" : {"baseColorFactor" : [0.3764705955982208, 0.3764705955982208, 0.3764705955982208, 1], "metallicFactor" : 1, "roughnessFactor" : 0.5527864098548889}, "emissiveFactor" : [0, 0, 0], "alphaMode" : "OPAQUE", "doubleSided" : true}, {"name" : "paintYellow", "pbrMetallicRoughness" : {"baseColorFactor" : [1, 0.740016520023346, 0.2594340145587921, 1], "metallicFactor" : 1, "roughnessFactor" : 0.5527864098548889}, "emissiveFactor" : [0, 0, 0], "alphaMode" : "OPAQUE", "doubleSided" : true}, {"name" : "carTire", "pbrMetallicRoughness" : {"baseColorFactor" : [0.23921559751033783, 0.23921559751033783, 0.23921559751033783, 1], "metallicFactor" : 1, "roughnessFactor" : 0.5527864098548889}, "emissiveFactor" : [0, 0, 0], "alphaMode" : "OPAQUE", "doubleSided" : true}, {"name" : "plastic", "pbrMetallicRoughness" : {"baseColorFactor" : [0.3764705955982208, 0.3764705955982208, 0.3764705955982208, 1], "metallicFactor" : 1, "roughnessFactor" : 0.5527864098548889}, "emissiveFactor" : [0, 0, 0], "alphaMode" : "OPAQUE", "doubleSided" : true}, {"name" : "paintYellow", "pbrMetallicRoughness" : {"baseColorFactor" : [1, 0.740016520023346, 0.2594340145587921, 1], "metallicFactor" : 1, "roughnessFactor" : 0.5527864098548889}, "emissiveFactor" : [0, 0, 0], "alphaMode" : "OPAQUE", "doubleSided" : true}, {"name" : "carTire", "pbrMetallicRoughness" : {"baseColorFactor" : [0.23921559751033783, 0.23921559751033783, 0.23921559751033783, 1], "metallicFactor" : 1, "roughnessFactor" : 0.5527864098548889}, "emissiveFactor" : [0, 0, 0], "alphaMode" : "OPAQUE", "doubleSided" : true}, {"name" : "plastic", "pbrMetallicRoughness" : {"baseColorFactor" : [0.3764705955982208, 0.3764705955982208, 0.3764705955982208, 1], "metallicFactor" : 1, "roughnessFactor" : 0.5527864098548889}, "emissiveFactor" : [0, 0, 0], "alphaMode" : "OPAQUE", "doubleSided" : true}, {"name" : "paintYellow", "pbrMetallicRoughness" : {"baseColorFactor" : [1, 0.740016520023346, 0.2594340145587921, 1], "metallicFactor" : 1, "roughnessFactor" : 0.5527864098548889}, "emissiveFactor" : [0, 0, 0], "alphaMode" : "OPAQUE", "doubleSided" : true}], "meshes" : [{"primitives" : [{"attributes" : {"POSITION" : 1, "NORMAL" : 2, "TEXCOORD_0" : 3}, "indices" : 0, "material" : 0, "mode" : 4}, {"attributes" : {"POSITION" : 5, "NORMAL" : 6, "TEXCOORD_0" : 7}, "indices" : 4, "material" : 1, "mode" : 4}, {"attributes" : {"POSITION" : 9, "NORMAL" : 10, "TEXCOORD_0" : 11}, "indices" : 8, "material" : 2, "mode" : 4}, {"attributes" : {"POSITION" : 13, "NORMAL" : 14, "TEXCOORD_0" : 15}, "indices" : 12, "material" : 3, "mode" : 4}]}, {"primitives" : [{"attributes" : {"POSITION" : 17, "NORMAL" : 18, "TEXCOORD_0" : 19}, "indices" : 16, "material" : 4, "mode" : 4}, {"attributes" : {"POSITION" : 21, "NORMAL" : 22, "TEXCOORD_0" : 23}, "indices" : 20, "material" : 5, "mode" : 4}, {"attributes" : {"POSITION" : 25, "NORMAL" : 26, "TEXCOORD_0" : 27}, "indices" : 24, "material" : 6, "mode" : 4}]}, {"primitives" : [{"attributes" : {"POSITION" : 29, "NORMAL" : 30, "TEXCOORD_0" : 31}, "indices" : 28, "material" : 7, "mode" : 4}, {"attributes" : {"POSITION" : 33, "NORMAL" : 34, "TEXCOORD_0" : 35}, "indices" : 32, "material" : 8, "mode" : 4}, {"attributes" : {"POSITION" : 37, "NORMAL" : 38, "TEXCOORD_0" : 39}, "indices" : 36, "material" : 9, "mode" : 4}]}, {"primitives" : [{"attributes" : {"POSITION" : 41, "NORMAL" : 42, "TEXCOORD_0" : 43}, "indices" : 40, "material" : 10, "mode" : 4}, {"attributes" : {"POSITION" : 45, "NORMAL" : 46, "TEXCOORD_0" : 47}, "indices" : 44, "material" : 11, "mode" : 4}, {"attributes" : {"POSITION" : 49, "NORMAL" : 50, "TEXCOORD_0" : 51}, "indices" : 48, "material" : 12, "mode" : 4}]}, {"primitives" : [{"attributes" : {"POSITION" : 53, "NORMAL" : 54, "TEXCOORD_0" : 55}, "indices" : 52, "material" : 13, "mode" : 4}, {"attributes" : {"POSITION" : 57, "NORMAL" : 58, "TEXCOORD_0" : 59}, "indices" : 56, "material" : 14, "mode" : 4}, {"attributes" : {"POSITION" : 61, "NORMAL" : 62, "TEXCOORD_0" : 63}, "indices" : 60, "material" : 15, "mode" : 4}]}], "nodes" : [{"matrix" : [1, 0, 0, 0, 0, 1, 0, 0, 0, 0, 1, 0, 0, 0, -1, 1], "mesh" : 0, "name" : "body"}, {"matrix" : [-1, -1.5099580252808664E-07, 0, 0, 1.5099580252808664E-07, -1, 0, 0, 0, 0, 1, 0, 3.5, -8.80113697052002, -3, 1], "mesh" : 1, "name" : "wheel_backLeft"}, {"matrix" : [1, 0, 0, 0, 0, 1, 0, 0, 0, 0, 1, 0, -3.5, -8.80113697052002, -3, 1], "mesh" : 2, "name" : "wheel_backRight"}, {"matrix" : [-1, -1.5099580252808664E-07, 0, 0, 1.5099580252808664E-07, -1, 0, 0, 0, 0, 1, 0, 3.5, 6.398861885070801, -3, 1], "mesh" : 3, "name" : "wheel_frontLeft"}, {"matrix" : [1, 0, 0, 0, 0, 1, 0, 0, 0, 0, 1, 0, -3.5, 6.398861885070801, -3, 1], "mesh" : 4, "name" : "wheel_frontRight"}, {"children" : [0, 1, 2, 3, 4], "matrix" : [0.10000000149011612, 0, 0, 0, 0, -1.3435885848715362E-08, 0.09999999806726118, 0, 0, -0.09999999806726118, -1.3435885848715362E-08, 0, 0, 0, 0, 1], "name" : "race"}], "scene" : 0, "scenes" : [{"nodes" : [5]}]}